<?xml version="1.0" standalone="no"?><!DOCTYPE svg PUBLIC "-//W3C//DTD SVG 1.1//EN" "http://www.w3.org/Graphics/SVG/1.1/DTD/svg11.dtd"><svg t="1661594479952" class="icon" viewBox="0 0 1024 1024" version="1.1" xmlns="http://www.w3.org/2000/svg" p-id="2512" xmlns:xlink="http://www.w3.org/1999/xlink" width="200" height="200"><path d="M642.976744 762.046512c-210.432 0-381.023256-170.591256-381.023256-381.023256 0-36.244837 5.167628-71.251349 14.621768-104.459907C116.938419 321.988465 0 468.777674 0 642.976744c0 210.432 170.591256 381.023256 381.023256 381.023256 174.187163 0 320.988279-116.938419 366.401488-276.575256A380.80893 380.80893 0 0 1 642.976744 762.046512z" fill="#CCCCCC" p-id="2513"></path><path d="M268.978605 453.786791C211.18214 461.966884 166.697674 511.488 166.697674 571.534884c0 65.750326 53.307535 119.069767 119.069768 119.069767a118.617302 118.617302 0 0 0 88.433116-39.54307 380.14214 380.14214 0 0 1-105.221953-197.27479z" fill="#B3B3B3" p-id="2514"></path><path d="M381.023256 857.302326m-47.627907 0a47.627907 47.627907 0 1 0 95.255814 0 47.627907 47.627907 0 1 0-95.255814 0Z" fill="#B3B3B3" p-id="2515"></path><path d="M761.379721 351.910698a13.442977 13.442977 0 0 0-10.12093-9.45414l-64.86921-13.026232-31.886883-60.308838c-2.32186-4.429395-6.739349-7.179907-11.537861-7.179907s-9.204093 2.738605-11.549767 7.179907l-31.874977 60.308838-64.869209 13.026232c-4.762791 0.940651-8.644465 4.572279-10.132837 9.45414-1.488372 4.88186-0.333395 10.228093 3.000558 13.954976l45.056 50.211721-8.180093 68.226977c-0.607256 5.060465 1.428837 10.073302 5.310511 13.073861a12.514233 12.514233 0 0 0 13.359628 1.41693L642.976744 469.480186l59.832558 29.30307a12.645209 12.645209 0 0 0 13.371535-1.41693c3.881674-3.000558 5.917767-8.013395 5.310512-13.073861l-8.180093-68.226977 45.067907-50.211721c3.34586-3.714977 4.48893-9.061209 3.000558-13.943069z" fill="#FFCC66" p-id="2516"></path></svg>