<?xml version="1.0" standalone="no"?><!DOCTYPE svg PUBLIC "-//W3C//DTD SVG 1.1//EN" "http://www.w3.org/Graphics/SVG/1.1/DTD/svg11.dtd"><svg t="1661597689343" class="icon" viewBox="0 0 1024 1024" version="1.1" xmlns="http://www.w3.org/2000/svg" p-id="5807" xmlns:xlink="http://www.w3.org/1999/xlink" width="200" height="200"><path d="M1.088 533.376C12.416 805.728 236.896 1024 512 1024s499.584-218.272 510.912-490.624A15.776 15.776 0 0 0 1024 528c0-1.152-0.416-2.144-0.64-3.2 0.096-4.288 0.64-8.48 0.64-12.8 0-282.304-229.696-512-512-512S0 229.696 0 512c0 4.32 0.544 8.512 0.64 12.8-0.224 1.056-0.64 2.048-0.64 3.2 0 1.92 0.48 3.68 1.088 5.376z m796.384 194.368a701.472 701.472 0 0 0-134.88-40.672c5.056-46.496 8.032-94.784 8.96-143.04h159.36c-2.912 65.728-14.592 127.776-33.44 183.712zM862.88 544h127.488a476.32 476.32 0 0 1-85.216 242.528 549.056 549.056 0 0 0-78.624-46.08c20.64-59.808 33.344-126.176 36.352-196.448z m-466.432 169.152A749.312 749.312 0 0 1 512 704c39.168 0 77.856 3.264 115.52 9.152C605.312 883.872 556.8 992 512 992s-93.312-108.128-115.552-278.848z m48.608 268.096c-88.032-28.224-162.496-111.072-207.424-223.488a667.936 667.936 0 0 1 127.68-38.944c14.688 111.872 41.536 209.344 79.744 262.432z m-52.288-638.56A781.76 781.76 0 0 0 512 352a781.76 781.76 0 0 0 119.232-9.312c5.504 51.84 8.768 108.416 8.768 169.312h-256c0-60.896 3.264-117.472 8.768-169.312zM639.52 544a1568.704 1568.704 0 0 1-8.32 137.312A780.704 780.704 0 0 0 512 672a781.44 781.44 0 0 0-119.232 9.312 1557.376 1557.376 0 0 1-8.32-137.312h255.072z m19.2 174.816c44.928 9.024 87.776 22.144 127.68 38.944-44.928 112.416-119.392 195.264-207.424 223.488 38.176-53.088 65.024-150.56 79.744-262.432zM672 512c0-58.752-3.264-118.272-9.408-175.04 47.36-9.344 92.672-23.04 134.88-40.672C819.36 361.216 832 434.368 832 512h-160z m-13.28-206.816c-14.72-111.872-41.536-209.376-79.776-262.432 88.032 28.224 162.496 111.072 207.424 223.488a665.344 665.344 0 0 1-127.648 38.944z m-31.168 5.664C589.856 316.736 551.168 320 512 320s-77.856-3.264-115.552-9.152C418.688 140.128 467.2 32 512 32c44.8 0 93.312 108.128 115.552 278.848z m-262.272-5.664a668.64 668.64 0 0 1-127.68-38.944c44.928-112.416 119.392-195.264 207.424-223.488-38.176 53.088-65.024 150.56-79.744 262.432z m-3.872 31.776A1642.08 1642.08 0 0 0 352 512H192c0-77.632 12.64-150.784 34.528-215.744 42.208 17.664 87.52 31.328 134.88 40.704z m-8.96 207.04c0.928 48.256 3.904 96.544 8.96 143.072-47.36 9.344-92.672 23.04-134.88 40.672-18.848-55.936-30.528-117.984-33.44-183.744h159.36zM197.44 740.448a551.68 551.68 0 0 0-78.592 46.08A476.224 476.224 0 0 1 33.632 544h127.488c3.008 70.272 15.712 136.64 36.32 196.448zM138.016 812.16a516.032 516.032 0 0 1 70.624-41.76c32.128 79.52 78.368 145.536 133.952 190.176a481.6 481.6 0 0 1-204.576-148.416z m543.392 148.384c55.616-44.608 101.824-110.656 133.952-190.176 25.28 12.288 48.704 26.432 70.624 41.76a481.056 481.056 0 0 1-204.576 148.416zM864 512c0-82.144-13.696-159.584-37.44-228.448 28.16-13.504 54.336-29.024 78.624-46.08A477.12 477.12 0 0 1 992 512h-128z m22.016-300.16c-21.92 15.328-45.344 29.472-70.624 41.76-32.128-79.52-78.368-145.568-133.952-190.176a481.984 481.984 0 0 1 204.576 148.416zM342.592 63.456C286.976 108.064 240.768 174.112 208.64 253.632A517.536 517.536 0 0 1 138.016 211.84a481.28 481.28 0 0 1 204.576-148.384zM118.848 237.472a549.92 549.92 0 0 0 78.592 46.08A702.528 702.528 0 0 0 160 512H32c0-102.08 32.288-196.64 86.848-274.528z" fill="#828282" p-id="5808"></path></svg>